<svg width="510" height="130" viewBox="0 0 510 130" fill="none" xmlns="http://www.w3.org/2000/svg">
<path d="M221.727 95.4605C218.307 98.4011 214.478 100.658 210.238 102.231C205.998 103.804 201.604 104.59 197.057 104.59C193.569 104.59 190.201 104.128 186.953 103.205C183.738 102.316 180.712 101.051 177.874 99.4097C175.07 97.7343 172.506 95.734 170.181 93.4089C167.856 91.0838 165.855 88.5193 164.18 85.7155C162.539 82.8775 161.257 79.8514 160.333 76.6373C159.444 73.3889 159 70.0209 159 66.5332C159 63.0456 159.444 59.6776 160.333 56.4292C161.257 53.1809 162.539 50.1548 164.18 47.351C165.855 44.513 167.856 41.9314 170.181 39.6063C172.506 37.2812 175.07 35.298 177.874 33.6567C180.712 31.9813 183.738 30.6991 186.953 29.81C190.201 28.8868 193.569 28.4252 197.057 28.4252C201.604 28.4252 205.998 29.2117 210.238 30.7845C214.478 32.3232 218.307 34.58 221.727 37.5547L213.931 50.3771C211.777 48.052 209.229 46.2739 206.289 45.043C203.348 43.7779 200.271 43.1453 197.057 43.1453C193.808 43.1453 190.765 43.7608 187.927 44.9917C185.089 46.2226 182.61 47.8981 180.49 50.0181C178.37 52.1038 176.695 54.5828 175.464 57.455C174.233 60.293 173.617 63.3191 173.617 66.5332C173.617 69.7474 174.233 72.7735 175.464 75.6115C176.695 78.4153 178.37 80.8772 180.49 82.9971C182.61 85.1171 185.089 86.7926 187.927 88.0235C190.765 89.2544 193.808 89.8699 197.057 89.8699C200.271 89.8699 203.348 89.2544 206.289 88.0235C209.229 86.7584 211.777 84.9632 213.931 82.6381L221.727 95.4605ZM242.909 103H228.805V26.2198H242.909V103ZM306.816 103H303.431L297.994 95.4605C296.661 96.6572 295.242 97.7856 293.737 98.8456C292.267 99.8713 290.711 100.777 289.07 101.564C287.428 102.316 285.736 102.915 283.992 103.359C282.282 103.804 280.539 104.026 278.761 104.026C274.897 104.026 271.255 103.376 267.836 102.077C264.451 100.777 261.476 98.8968 258.912 96.435C256.381 93.9389 254.381 90.8957 252.911 87.3054C251.44 83.7152 250.705 79.6291 250.705 75.0473C250.705 70.7732 251.44 66.8581 252.911 63.302C254.381 59.7118 256.381 56.6344 258.912 54.0699C261.476 51.5055 264.451 49.5223 267.836 48.1204C271.255 46.6843 274.897 45.9662 278.761 45.9662C280.539 45.9662 282.3 46.1885 284.043 46.633C285.787 47.0775 287.48 47.6929 289.121 48.4794C290.762 49.2658 292.318 50.189 293.788 51.249C295.293 52.309 296.695 53.4545 297.994 54.6854L303.431 48.1716H306.816V103ZM292.711 75.0473C292.711 73.1325 292.335 71.2861 291.583 69.508C290.865 67.6958 289.873 66.1058 288.608 64.7381C287.343 63.3362 285.856 62.2249 284.146 61.4043C282.47 60.5495 280.675 60.1221 278.761 60.1221C276.846 60.1221 275.034 60.4469 273.324 61.0966C271.648 61.7462 270.178 62.7036 268.913 63.9688C267.682 65.2339 266.708 66.8068 265.989 68.6874C265.271 70.5338 264.912 72.6538 264.912 75.0473C264.912 77.4408 265.271 79.5778 265.989 81.4585C266.708 83.3049 267.682 84.8607 268.913 86.1258C270.178 87.3909 271.648 88.3483 273.324 88.998C275.034 89.6477 276.846 89.9725 278.761 89.9725C280.675 89.9725 282.47 89.5622 284.146 88.7416C285.856 87.8867 287.343 86.7755 288.608 85.4077C289.873 84.0058 290.865 82.4159 291.583 80.6378C292.335 78.8256 292.711 76.9621 292.711 75.0473ZM330.768 123.926V109.821L338.564 109.924C339.932 109.924 341.248 109.702 342.513 109.257C343.778 108.813 344.941 108.197 346.001 107.411C347.095 106.624 348.052 105.684 348.873 104.59C349.694 103.53 350.361 102.367 350.873 101.102C349.335 101.752 347.762 102.402 346.155 103.051C344.582 103.701 342.992 104.026 341.385 104.026C338 104.026 334.82 103.427 331.845 102.231C328.87 101.034 326.255 99.3414 323.998 97.153C321.775 94.9305 320.014 92.2463 318.715 89.1006C317.45 85.9206 316.817 82.3646 316.817 78.4324V48.0691H330.768V78.4324C330.768 80.3814 331.042 82.091 331.589 83.5613C332.17 84.9974 332.939 86.2113 333.897 87.2029C334.854 88.1603 335.965 88.8783 337.23 89.357C338.53 89.8357 339.915 90.0751 341.385 90.0751C342.821 90.0751 344.172 89.7502 345.437 89.1006C346.736 88.4167 347.864 87.5277 348.822 86.4335C349.779 85.3394 350.531 84.1084 351.079 82.7407C351.626 81.3388 351.899 79.9027 351.899 78.4324V48.0691H366.004V96.0759C365.97 99.9397 365.217 103.564 363.747 106.949C362.277 110.334 360.259 113.292 357.695 115.822C355.165 118.353 352.207 120.353 348.822 121.823C345.437 123.294 341.812 124.029 337.948 124.029L330.768 123.926ZM404.266 103C400.881 103 397.701 102.367 394.726 101.102C391.751 99.803 389.135 98.042 386.879 95.8195C384.656 93.5628 382.895 90.947 381.596 87.9722C380.331 84.9974 379.698 81.8175 379.698 78.4324V62.1224H372.877V48.1716H379.698V26.2198H393.649V48.1716H414.883V62.1224H393.649V78.4324C393.649 79.9027 393.922 81.2875 394.469 82.5868C395.016 83.852 395.769 84.9632 396.726 85.9206C397.684 86.878 398.812 87.6474 400.111 88.2287C401.411 88.7757 402.795 89.0493 404.266 89.0493H414.883V103H404.266ZM439.296 33.1439C439.296 34.4432 439.04 35.657 438.527 36.7854C438.048 37.9138 437.382 38.9054 436.527 39.7602C435.672 40.5808 434.663 41.2476 433.501 41.7605C432.372 42.2392 431.158 42.4785 429.859 42.4785C428.56 42.4785 427.329 42.2392 426.166 41.7605C425.038 41.2476 424.046 40.5808 423.191 39.7602C422.371 38.9054 421.704 37.9138 421.191 36.7854C420.712 35.657 420.473 34.4432 420.473 33.1439C420.473 31.8787 420.712 30.682 421.191 29.5536C421.704 28.391 422.371 27.3994 423.191 26.5788C424.046 25.724 425.038 25.0572 426.166 24.5785C427.329 24.0656 428.56 23.8092 429.859 23.8092C431.158 23.8092 432.372 24.0656 433.501 24.5785C434.663 25.0572 435.672 25.724 436.527 26.5788C437.382 27.3994 438.048 28.391 438.527 29.5536C439.04 30.682 439.296 31.8787 439.296 33.1439ZM436.886 103H422.781V48.0691H436.886V103ZM461.71 123.926H447.605V48.0691H450.99L456.581 54.6854C457.846 53.4886 459.231 52.3603 460.735 51.3003C462.24 50.2403 463.796 49.3342 465.403 48.582C467.044 47.7955 468.736 47.1801 470.48 46.7355C472.224 46.291 473.985 46.0688 475.763 46.0688C479.627 46.0688 483.251 46.7697 486.636 48.1716C490.056 49.5394 493.031 51.4884 495.561 54.0186C498.125 56.5489 500.143 59.6092 501.613 63.1994C503.083 66.7555 503.818 70.7048 503.818 75.0473C503.818 79.5608 503.083 83.6297 501.613 87.2542C500.143 90.8444 498.125 93.9047 495.561 96.435C493.031 98.931 490.056 100.846 486.636 102.179C483.251 103.513 479.627 104.18 475.763 104.18C474.532 104.18 473.301 104.043 472.07 103.769C470.873 103.496 469.677 103.137 468.48 102.692C467.317 102.214 466.155 101.684 464.992 101.102C463.864 100.521 462.77 99.9226 461.71 99.3072V123.926ZM489.765 75.0473C489.765 72.7222 489.389 70.6364 488.637 68.79C487.919 66.9436 486.927 65.3878 485.662 64.1226C484.397 62.8233 482.909 61.8317 481.2 61.1479C479.49 60.464 477.678 60.1221 475.763 60.1221C473.848 60.1221 472.036 60.464 470.326 61.1479C468.651 61.8317 467.181 62.8233 465.916 64.1226C464.65 65.3878 463.642 66.9436 462.889 68.79C462.171 70.6364 461.812 72.7222 461.812 75.0473C461.812 77.2698 462.171 79.3043 462.889 81.1507C463.642 82.9971 464.65 84.57 465.916 85.8693C467.181 87.1687 468.651 88.1774 470.326 88.8954C472.036 89.6135 473.848 89.9725 475.763 89.9725C477.678 89.9725 479.49 89.6135 481.2 88.8954C482.909 88.1774 484.397 87.1687 485.662 85.8693C486.927 84.57 487.919 82.9971 488.637 81.1507C489.389 79.3043 489.765 77.2698 489.765 75.0473Z" fill="#777777"/>
<path d="M0 106.768C0 96.1323 10.0872 88.4487 20.4856 90.6809C51.4764 97.3336 75.2224 97.6256 106.586 90.8261C116.996 88.5693 127.154 96.23 127.154 106.882C127.154 114.63 121.64 121.313 113.995 122.574C76.7663 128.715 51.0717 128.677 13.2806 122.549C5.57401 121.3 0 114.575 0 106.768Z" fill="#F06060"/>
<path d="M15.2032 67.841C15.2032 57.0128 25.9274 49.5811 36.4372 52.1879C54.9467 56.7787 70.4737 56.9627 89.2481 52.3245C99.769 49.7253 110.569 57.1284 110.569 67.9657C110.569 75.0917 105.729 81.3625 98.7615 82.8563C72.3576 88.517 53.6163 88.4452 27.1421 82.8422C20.1057 81.353 15.2032 75.0332 15.2032 67.841Z" fill="#6B8FEB"/>
<path d="M31.7886 30.0797C31.7886 19.1605 43.6926 12.6942 54.4074 14.797C60.4571 15.9843 66.4025 15.9222 72.7675 14.5503C83.5413 12.2282 95.3658 18.9145 95.3658 29.9358C95.3658 35.956 91.6811 41.4487 85.9325 43.2367C69.5077 48.3452 57.4439 48.1748 41.1055 43.1327C35.4462 41.3862 31.7886 36.0023 31.7886 30.0797Z" fill="#31C36F"/>
</svg>
