<svg width="467" height="151" viewBox="0 0 467 151" fill="none" xmlns="http://www.w3.org/2000/svg">
<path d="M139.327 99.7259C135.076 99.7259 131.412 98.9136 128.336 97.2891C125.277 95.6473 122.918 93.2969 121.259 90.2379C119.617 87.1617 118.796 83.4806 118.796 79.1946C118.796 75.0814 119.626 71.4867 121.285 68.4105C122.944 65.3343 125.285 62.9407 128.31 61.2298C131.334 59.5188 134.903 58.6634 139.016 58.6634C142.023 58.6634 144.745 59.13 147.182 60.0632C149.619 60.9964 151.701 62.3531 153.429 64.1332C155.158 65.896 156.488 68.0389 157.422 70.5621C158.355 73.0853 158.822 75.9283 158.822 79.0909V82.4091H123.255V74.5284H145.652C145.635 73.3878 145.341 72.3854 144.771 71.5213C144.218 70.6399 143.466 69.9573 142.516 69.4734C141.583 68.9722 140.52 68.7216 139.327 68.7216C138.169 68.7216 137.106 68.9722 136.139 69.4734C135.171 69.9573 134.393 70.6313 133.806 71.4954C133.235 72.3595 132.933 73.3705 132.898 74.5284V83.0312C132.898 84.3101 133.166 85.4508 133.702 86.4531C134.238 87.4555 135.007 88.2418 136.009 88.8121C137.011 89.3825 138.221 89.6676 139.638 89.6676C140.623 89.6676 141.522 89.5294 142.334 89.2528C143.164 88.9763 143.872 88.5788 144.46 88.0604C145.048 87.5246 145.48 86.8852 145.756 86.142H158.822C158.372 88.9072 157.309 91.3094 155.633 93.3487C153.957 95.3707 151.736 96.9434 148.971 98.0668C146.223 99.1728 143.008 99.7259 139.327 99.7259ZM175.843 59.1818L181.649 71.5213L187.767 59.1818H201.973L191.293 79.0909L202.492 99H188.389L181.649 86.3494L175.117 99H160.807L172.11 79.0909L161.533 59.1818H175.843ZM224.159 99.7259C219.839 99.7259 216.14 98.8704 213.064 97.1594C209.988 95.4312 207.629 93.029 205.987 89.9528C204.345 86.8593 203.524 83.2732 203.524 79.1946C203.524 75.116 204.345 71.5386 205.987 68.4624C207.629 65.3688 209.988 62.9666 213.064 61.2557C216.14 59.5275 219.839 58.6634 224.159 58.6634C228.48 58.6634 232.178 59.5275 235.255 61.2557C238.331 62.9666 240.69 65.3688 242.332 68.4624C243.973 71.5386 244.794 75.116 244.794 79.1946C244.794 83.2732 243.973 86.8593 242.332 89.9528C240.69 93.029 238.331 95.4312 235.255 97.1594C232.178 98.8704 228.48 99.7259 224.159 99.7259ZM224.263 89.1491C225.473 89.1491 226.518 88.743 227.4 87.9308C228.281 87.1185 228.964 85.9606 229.448 84.457C229.932 82.9535 230.174 81.1648 230.174 79.0909C230.174 76.9998 229.932 75.2111 229.448 73.7248C228.964 72.2212 228.281 71.0633 227.4 70.2511C226.518 69.4388 225.473 69.0327 224.263 69.0327C222.984 69.0327 221.887 69.4388 220.971 70.2511C220.055 71.0633 219.355 72.2212 218.871 73.7248C218.387 75.2111 218.145 76.9998 218.145 79.0909C218.145 81.1648 218.387 82.9535 218.871 84.457C219.355 85.9606 220.055 87.1185 220.971 87.9308C221.887 88.743 222.984 89.1491 224.263 89.1491ZM269.054 114.761C265.062 114.761 261.64 114.191 258.789 113.05C255.954 111.927 253.751 110.372 252.178 108.384C250.623 106.414 249.75 104.15 249.56 101.592H263.351C263.49 102.439 263.835 103.122 264.388 103.64C264.941 104.159 265.65 104.53 266.514 104.755C267.395 104.997 268.38 105.118 269.469 105.118C271.318 105.118 272.848 104.669 274.058 103.77C275.285 102.871 275.898 101.247 275.898 98.8963V92.1562H275.483C274.965 93.5043 274.17 94.6535 273.098 95.604C272.027 96.5373 270.739 97.2545 269.236 97.7557C267.732 98.2396 266.082 98.4815 264.284 98.4815C261.45 98.4815 258.841 97.8248 256.456 96.5114C254.088 95.1979 252.187 93.1154 250.753 90.2638C249.335 87.4123 248.627 83.688 248.627 79.0909C248.627 74.2865 249.37 70.3807 250.856 67.3736C252.36 64.3665 254.295 62.163 256.663 60.7631C259.048 59.3633 261.554 58.6634 264.181 58.6634C266.151 58.6634 267.879 59.009 269.365 59.7003C270.852 60.3743 272.096 61.2816 273.098 62.4222C274.101 63.5456 274.861 64.7812 275.38 66.1293H275.691V59.1818H290V98.8963C290 102.266 289.128 105.127 287.382 107.477C285.654 109.845 283.217 111.651 280.072 112.895C276.926 114.139 273.254 114.761 269.054 114.761ZM269.573 88.3196C270.886 88.3196 272.01 87.9567 272.943 87.2308C273.893 86.4877 274.619 85.4335 275.12 84.0682C275.639 82.6856 275.898 81.0265 275.898 79.0909C275.898 77.1207 275.639 75.4357 275.12 74.0359C274.619 72.6187 273.893 71.5386 272.943 70.7955C272.01 70.035 270.886 69.6548 269.573 69.6548C268.259 69.6548 267.136 70.035 266.203 70.7955C265.287 71.5386 264.578 72.6187 264.077 74.0359C263.593 75.4357 263.351 77.1207 263.351 79.0909C263.351 81.0611 263.593 82.7375 264.077 84.12C264.578 85.4853 265.287 86.5309 266.203 87.2567C267.136 87.9653 268.259 88.3196 269.573 88.3196ZM296.548 99V59.1818H310.443V66.7514H310.858C311.584 63.9517 312.733 61.9038 314.306 60.6076C315.896 59.3114 317.754 58.6634 319.879 58.6634C320.502 58.6634 321.115 58.7152 321.72 58.8189C322.342 58.9053 322.938 59.0349 323.509 59.2077V71.4176C322.8 71.1757 321.927 70.9942 320.89 70.8732C319.853 70.7522 318.963 70.6918 318.22 70.6918C316.82 70.6918 315.559 71.0115 314.435 71.6509C313.329 72.2731 312.457 73.1545 311.817 74.2951C311.178 75.4184 310.858 76.7405 310.858 78.2614V99H296.548ZM336.712 99.6222C334.172 99.6222 331.925 99.2074 329.972 98.3778C328.037 97.531 326.516 96.2521 325.41 94.5412C324.304 92.8303 323.751 90.6527 323.751 88.0085C323.751 85.831 324.122 83.9731 324.865 82.435C325.609 80.8796 326.645 79.6094 327.976 78.6243C329.307 77.6392 330.854 76.8874 332.616 76.369C334.397 75.8505 336.315 75.5135 338.371 75.358C340.601 75.1851 342.39 74.9777 343.738 74.7358C345.103 74.4766 346.088 74.1223 346.693 73.6729C347.298 73.2063 347.6 72.5928 347.6 71.8324V71.7287C347.6 70.6918 347.203 69.8968 346.408 69.3438C345.613 68.7907 344.593 68.5142 343.349 68.5142C341.983 68.5142 340.869 68.8166 340.005 69.4215C339.158 70.0091 338.648 70.9164 338.475 72.1435H325.306C325.479 69.724 326.248 67.4946 327.613 65.4553C328.996 63.3987 331.009 61.7569 333.653 60.5298C336.298 59.2855 339.599 58.6634 343.556 58.6634C346.408 58.6634 348.965 59.0004 351.229 59.6744C353.493 60.3311 355.42 61.2557 357.01 62.4482C358.6 63.6233 359.81 65.0059 360.64 66.5959C361.486 68.1686 361.91 69.8795 361.91 71.7287V99H348.533V93.4006H348.222C347.427 94.8868 346.46 96.0879 345.319 97.0039C344.196 97.9199 342.908 98.5852 341.456 99C340.022 99.4148 338.441 99.6222 336.712 99.6222ZM341.379 90.6009C342.467 90.6009 343.487 90.3762 344.438 89.9268C345.405 89.4775 346.192 88.8294 346.797 87.9826C347.401 87.1358 347.704 86.1075 347.704 84.8977V81.5795C347.324 81.7351 346.918 81.882 346.485 82.0202C346.071 82.1585 345.621 82.2881 345.137 82.4091C344.671 82.5301 344.17 82.6424 343.634 82.7461C343.115 82.8498 342.571 82.9448 342.001 83.0312C340.895 83.2041 339.987 83.4892 339.279 83.8867C338.587 84.2669 338.069 84.7422 337.723 85.3125C337.395 85.8655 337.231 86.4877 337.231 87.179C337.231 88.285 337.62 89.1319 338.397 89.7195C339.175 90.3071 340.169 90.6009 341.379 90.6009ZM368.017 113.932V59.1818H382.223V66.1293H382.534C383.053 64.7812 383.813 63.5456 384.815 62.4222C385.818 61.2816 387.062 60.3743 388.548 59.7003C390.035 59.009 391.763 58.6634 393.733 58.6634C396.36 58.6634 398.857 59.3633 401.225 60.7631C403.61 62.163 405.545 64.3665 407.032 67.3736C408.535 70.3807 409.287 74.2865 409.287 79.0909C409.287 83.688 408.57 87.4987 407.135 90.5231C405.718 93.5475 403.817 95.8028 401.432 97.2891C399.065 98.7753 396.464 99.5185 393.629 99.5185C391.763 99.5185 390.095 99.216 388.626 98.6112C387.174 97.989 385.93 97.1508 384.893 96.0966C383.873 95.0251 383.087 93.8153 382.534 92.4673H382.327V113.932H368.017ZM382.016 79.0909C382.016 81.0265 382.266 82.7029 382.767 84.12C383.286 85.5199 384.012 86.6087 384.945 87.3864C385.896 88.1468 387.027 88.527 388.341 88.527C389.654 88.527 390.769 88.1554 391.685 87.4123C392.618 86.6519 393.327 85.5717 393.811 84.1719C394.312 82.7547 394.563 81.0611 394.563 79.0909C394.563 77.1207 394.312 75.4357 393.811 74.0359C393.327 72.6187 392.618 71.5386 391.685 70.7955C390.769 70.035 389.654 69.6548 388.341 69.6548C387.027 69.6548 385.896 70.035 384.945 70.7955C384.012 71.5386 383.286 72.6187 382.767 74.0359C382.266 75.4357 382.016 77.1207 382.016 79.0909ZM428.861 76.6023V99H414.552V45.9091H428.343V66.7514H428.758C429.656 64.2109 431.151 62.2321 433.242 60.815C435.334 59.3806 437.848 58.6634 440.786 58.6634C443.603 58.6634 446.049 59.3028 448.122 60.5817C450.214 61.8606 451.829 63.6233 452.97 65.87C454.128 68.1167 454.698 70.6918 454.681 73.5952V99H440.371V76.6023C440.389 74.6321 439.896 73.0853 438.894 71.962C437.909 70.8387 436.5 70.277 434.668 70.277C433.51 70.277 432.491 70.5362 431.609 71.0547C430.745 71.5559 430.071 72.2817 429.587 73.2322C429.121 74.1655 428.879 75.2888 428.861 76.6023Z" fill="white"/>
<g filter="url(#filter0_d_405_23)">
<path d="M15.4495 113.233C13.1678 109.313 15.0758 104.285 19.3674 102.818C40.6592 95.5381 43.1572 93.9515 55.9877 87.0551L63.3365 98.1679C50.8693 105.648 47.3436 106.962 24.346 116.263C21.042 117.6 17.2425 116.313 15.4495 113.233V113.233Z" fill="#F06060"/>
</g>
<g filter="url(#filter1_d_405_23)">
<path d="M35.9033 34C40.4704 34 43.8645 38.2195 42.9862 42.7012C37.6246 70.0574 37.4313 85.8713 42.9501 113.697C43.8398 118.182 40.449 122.419 35.8761 122.419V122.419C32.3752 122.419 29.3801 119.881 28.8355 116.422C24.0589 86.0896 24.1154 70.4738 28.8455 40.0261C29.385 36.5534 32.389 34 35.9033 34V34Z" fill="#6B8FEB"/>
</g>
<g filter="url(#filter2_d_405_23)">
<path d="M95.2683 91.5028C93.0095 95.4477 87.6573 96.2313 84.2749 93.1942C63.8861 74.8868 47.9049 65.4614 19.5965 56.2162C15.222 54.7876 13.1829 49.709 15.4696 45.7156V45.7156C17.1799 42.7287 20.7871 41.3793 24.0216 42.5559C53.6407 53.3303 68.908 63.0666 93.5426 82.5306C96.26 84.6777 96.9893 88.4974 95.2683 91.5028V91.5028Z" fill="#31C36F"/>
</g>
<g filter="url(#filter3_d_405_23)">
<path d="M58.1385 85.8003C67.8848 79.6882 65.9083 81.0361 85.1823 65.4297C88.1516 63.0254 92.5258 63.4768 94.9243 66.4509V66.4509C97.4276 69.555 96.7804 74.1288 93.5656 76.4882C79.1246 87.0865 75.743 90.9988 63.1572 98.1679L60.7493 92.251L58.1385 85.8003Z" fill="#F06060"/>
</g>
<path d="M44.3371 93.5077C52.9406 88.8474 57.7801 86.1588 64.7705 81.6778L72.9996 92.001C65.8459 97.0925 59.3933 100.498 49.9991 105.501L49.9416 105.422C47.3369 101.841 45.4352 97.7978 44.3371 93.5077V93.5077Z" fill="#F06060"/>
<defs>
<filter id="filter0_d_405_23" x="8.31742" y="84.0551" width="61.1791" height="42.0535" filterUnits="userSpaceOnUse" color-interpolation-filters="sRGB">
<feFlood flood-opacity="0" result="BackgroundImageFix"/>
<feColorMatrix in="SourceAlpha" type="matrix" values="0 0 0 0 0 0 0 0 0 0 0 0 0 0 0 0 0 0 127 0" result="hardAlpha"/>
<feOffset dy="3.16"/>
<feGaussianBlur stdDeviation="3.08"/>
<feComposite in2="hardAlpha" operator="out"/>
<feColorMatrix type="matrix" values="0 0 0 0 0 0 0 0 0 0 0 0 0 0 0 0 0 0 0.25 0"/>
<feBlend mode="normal" in2="BackgroundImageFix" result="effect1_dropShadow_405_23"/>
<feBlend mode="normal" in="SourceGraphic" in2="effect1_dropShadow_405_23" result="shape"/>
</filter>
<filter id="filter1_d_405_23" x="19.1154" y="31" width="30.1697" height="100.739" filterUnits="userSpaceOnUse" color-interpolation-filters="sRGB">
<feFlood flood-opacity="0" result="BackgroundImageFix"/>
<feColorMatrix in="SourceAlpha" type="matrix" values="0 0 0 0 0 0 0 0 0 0 0 0 0 0 0 0 0 0 127 0" result="hardAlpha"/>
<feOffset dy="3.16"/>
<feGaussianBlur stdDeviation="3.08"/>
<feComposite in2="hardAlpha" operator="out"/>
<feColorMatrix type="matrix" values="0 0 0 0 0 0 0 0 0 0 0 0 0 0 0 0 0 0 0.25 0"/>
<feBlend mode="normal" in2="BackgroundImageFix" result="effect1_dropShadow_405_23"/>
<feBlend mode="normal" in="SourceGraphic" in2="effect1_dropShadow_405_23" result="shape"/>
</filter>
<filter id="filter2_d_405_23" x="8.36246" y="39.1329" width="93.9935" height="65.2356" filterUnits="userSpaceOnUse" color-interpolation-filters="sRGB">
<feFlood flood-opacity="0" result="BackgroundImageFix"/>
<feColorMatrix in="SourceAlpha" type="matrix" values="0 0 0 0 0 0 0 0 0 0 0 0 0 0 0 0 0 0 127 0" result="hardAlpha"/>
<feOffset dy="3.16"/>
<feGaussianBlur stdDeviation="3.08"/>
<feComposite in2="hardAlpha" operator="out"/>
<feColorMatrix type="matrix" values="0 0 0 0 0 0 0 0 0 0 0 0 0 0 0 0 0 0 0.25 0"/>
<feBlend mode="normal" in2="BackgroundImageFix" result="effect1_dropShadow_405_23"/>
<feBlend mode="normal" in="SourceGraphic" in2="effect1_dropShadow_405_23" result="shape"/>
</filter>
<filter id="filter3_d_405_23" x="51.9785" y="60.8857" width="50.6363" height="46.6022" filterUnits="userSpaceOnUse" color-interpolation-filters="sRGB">
<feFlood flood-opacity="0" result="BackgroundImageFix"/>
<feColorMatrix in="SourceAlpha" type="matrix" values="0 0 0 0 0 0 0 0 0 0 0 0 0 0 0 0 0 0 127 0" result="hardAlpha"/>
<feOffset dy="3.16"/>
<feGaussianBlur stdDeviation="3.08"/>
<feComposite in2="hardAlpha" operator="out"/>
<feColorMatrix type="matrix" values="0 0 0 0 0 0 0 0 0 0 0 0 0 0 0 0 0 0 0.25 0"/>
<feBlend mode="normal" in2="BackgroundImageFix" result="effect1_dropShadow_405_23"/>
<feBlend mode="normal" in="SourceGraphic" in2="effect1_dropShadow_405_23" result="shape"/>
</filter>
</defs>
</svg>
